<svg width="150" height="150" viewBox="0 0 150 150" fill="none" xmlns="http://www.w3.org/2000/svg">
<g clip-path="url(#clip0_1_468)">
<rect width="150" height="150" rx="75" fill="#7C4EFE"/>
<path d="M162.094 179.41C153.242 180.372 144.325 181.27 135.409 181.912C133.613 182.04 131.881 182.169 130.085 182.297C130.021 196.922 129.957 211.483 129.893 226.108C113.215 225.916 96.5368 225.146 79.8589 224.441C63.7584 223.735 47.5937 223.029 31.4931 223.093C24.1164 223.093 16.8038 223.158 9.427 223.029C9.36286 215.139 9.2987 207.249 9.2987 199.424C6.60459 199.873 3.84634 199.36 1.53709 197.499C1.34466 194.613 1.2805 191.726 1.2805 188.904C1.15221 180.693 1.15224 172.418 1.15224 164.144C1.02395 145.99 1.4088 127.837 3.33316 109.812C4.48779 111.095 5.64242 112.314 6.79705 113.597C12.8267 104.039 20.2676 95.3153 31.3007 91.5949C38.4209 89.2215 46.1183 89.5422 53.4309 90.312C55.0987 90.5044 56.8306 90.6968 58.4984 90.8893C65.2337 91.659 72.0332 92.6212 78.7043 93.5834C85.0547 94.4814 91.4052 95.5078 97.7556 96.5982C108.083 98.3302 118.346 100.255 128.545 102.435C132.266 103.205 145.095 106.797 149.714 115.008L149.778 115.072C152.472 119.883 154.14 125.207 155.294 130.724C157.411 140.666 158.63 150.865 159.977 161C160.747 167.094 161.452 173.252 162.094 179.41Z" fill="#BCD7FD"/>
<path d="M97.7561 96.5341C94.0357 105.001 87.4287 111.865 77.3578 112.699C65.2343 113.725 54.3295 102.243 58.499 90.8251C65.2343 91.5948 72.0337 92.557 78.7049 93.5192C85.0553 94.4814 91.4057 95.5077 97.7561 96.5341Z" fill="#952C28"/>
<path d="M110.649 141.051C110.649 140.538 109.751 140.538 109.815 141.051C110.457 153.046 111.034 165.042 111.676 177.101C111.547 177.165 111.483 177.358 111.483 177.55C111.547 177.871 111.676 178.191 111.74 178.512C111.868 178.961 112.574 178.897 112.574 178.384C111.932 165.94 111.291 153.495 110.649 141.051Z" fill="white"/>
<path d="M17.7663 110.454C17.189 114.559 16.6117 118.664 16.0344 122.77C15.9702 123.283 16.74 123.54 16.8683 122.962C17.4456 118.857 18.0229 114.752 18.6002 110.646C18.6643 110.133 17.8305 109.941 17.7663 110.454Z" fill="white"/>
<path d="M6.73404 113.597C-8.72507 96.2778 -26.1727 80.8187 -45.2881 67.4764C-47.5973 64.7181 -50.7404 62.9862 -54.5892 64.9106C-54.9099 65.103 -57.9889 68.5027 -58.4379 69.7856C-61.9659 75.3022 -77.6816 89.4142 -77.2968 91.0179C-76.7195 93.5195 -68.5729 95.2515 -69.1503 92.1083C-68.7012 91.3386 -68.4447 90.8254 -67.9956 90.1198C-67.5466 89.9274 -67.1617 89.7349 -66.7769 89.5425C-66.2637 94.2251 -62.4791 97.7532 -57.6682 97.7532C-55.3589 104.168 -50.0349 108.85 -43.492 110.518C-26.0444 146.889 -0.642677 194.421 0.832672 196.858C2.43631 199.488 5.90015 205.261 9.42816 204.235C10.1979 179.86 12.8279 150.288 15.522 126.041C12.8279 121.487 6.92648 113.212 6.73404 113.597Z" fill="#952C28"/>
<path d="M93.4574 102.307L61.577 99.3564L61.1922 90.4402L60.7431 78.9581L59.9092 59.2013H83.8356C83.8356 61.5747 93.4574 102.307 93.4574 102.307Z" fill="#952C28"/>
<path d="M89.7379 41.4968C84.6704 30.7845 55.7408 29.8865 53.4315 41.2402C51.6996 49.8358 52.2128 55.673 50.0959 62.3441C48.364 67.8607 46.9528 73.5055 50.3525 78.7013C57.2161 89.0929 71.5847 86.0139 78.7691 77.8674C85.9534 69.6568 94.7413 52.0808 89.7379 41.4968Z" fill="#952C28"/>
<path d="M89.7374 41.4971C86.5301 34.6335 73.5085 31.8111 63.9508 33.6072C63.6943 33.4789 63.4377 33.2865 63.117 33.2223C61.5775 32.645 59.5248 32.8375 58.4343 33.9279C56.3817 33.1582 53.88 33.7996 52.7254 35.9164C51.1217 38.803 53.2385 41.882 53.2385 42.0744C56.4458 43.7422 61.1926 44.2554 64.2716 44.7685C69.0825 45.6666 74.8556 46.1156 78.6402 45.7949C79.1534 49.1304 78.8326 57.7901 76.0102 61.0615C72.0332 65.68 54.3932 62.7935 50.8652 59.2013C50.6727 60.2276 50.352 61.254 50.0312 62.2803C48.2993 67.7968 46.8881 73.4416 50.2878 78.6374C57.1514 89.029 71.52 85.95 78.7043 77.8035C85.9528 69.6571 94.7408 52.0811 89.7374 41.4971Z" fill="black"/>
<path d="M61.6429 61.254C60.7449 61.3181 59.7186 61.3822 58.8205 61.0615C57.7942 60.6766 56.832 59.4579 57.73 58.4316C58.0508 58.0467 57.4735 57.4052 57.1527 57.8542C56.3188 58.8164 56.4471 60.1635 57.3452 61.0615C58.4998 62.2161 60.1676 62.2161 61.7071 62.0879C62.1561 62.0237 62.1561 61.1898 61.6429 61.254Z" fill="black"/>
<path d="M69.6608 68.1176C69.5967 67.6045 68.7628 67.6045 68.8269 68.1176C69.0194 70.2344 67.4157 71.9664 65.2989 71.9022C64.7858 71.9022 64.7858 72.7361 65.2989 72.7361C67.8648 72.8003 69.9174 70.6835 69.6608 68.1176Z" fill="white"/>
<path d="M59.076 52.5944C58.7553 55.9942 55.548 58.56 52.1483 57.662C48.6844 56.7639 47.2091 52.9793 48.5561 49.8362C48.7486 49.323 48.043 48.9381 47.8505 49.3872C46.2469 53.0435 47.9147 57.4054 51.8917 58.4317C55.9329 59.5222 59.525 56.5073 59.9099 52.5303C59.9741 52.0813 59.1402 52.0813 59.076 52.5944Z" fill="#BCD7FD"/>
<path d="M75.6894 54.1982C75.8819 57.662 73.1236 60.6128 69.5956 60.2279C66.0676 59.843 64.0149 56.315 64.913 52.9794C65.0413 52.4663 64.2715 52.1455 64.1432 52.6587C63.1169 56.5074 65.362 60.5486 69.4673 60.9976C73.5727 61.4466 76.7158 57.9828 76.5234 54.0057C76.5234 53.5567 75.6894 53.6209 75.6894 54.1982Z" fill="#BCD7FD"/>
<path d="M64.464 53.8773C62.6679 53.749 60.936 53.6848 59.2041 53.5565C58.6909 53.5565 58.6909 54.3904 59.2041 54.3904C60.936 54.5187 62.6679 54.5829 64.464 54.7112C64.464 54.3904 64.464 54.1339 64.464 53.8773Z" fill="#BCD7FD"/>
<path d="M69.2098 53.3641C69.1457 54.1339 69.0174 54.9036 68.9533 55.6734C68.8891 56.4431 70.1079 56.4431 70.172 55.6734C70.2362 54.9036 70.3645 54.1339 70.4286 53.3641C70.4928 52.5302 69.274 52.5302 69.2098 53.3641Z" fill="black"/>
<path d="M53.8159 50.285C53.7518 51.0547 53.6235 51.8245 53.5593 52.5942C53.4952 53.3639 54.714 53.3639 54.7781 52.5942C54.8423 51.8245 54.9706 51.0547 55.0347 50.285C55.163 49.4511 53.9442 49.4511 53.8159 50.285Z" fill="black"/>
<path d="M96.7936 57.79C95.7032 53.7488 89.8659 51.0547 85.1833 54.262C84.6701 58.7522 84.0287 63.2424 83.3231 67.7326C85.5682 69.0796 90.4432 69.5928 93.3939 67.6043C96.7936 65.3592 97.8841 62.0878 96.7936 57.79Z" fill="#952C28"/>
<path d="M90.0584 59.1372C88.8397 60.2918 87.6209 61.3823 86.4663 62.5369C86.0814 62.9218 86.6587 63.435 87.0436 63.1143C87.1077 63.0501 87.236 62.986 87.3002 62.9218C87.3643 62.9218 87.3643 62.8577 87.3643 62.8577C88.4548 61.8313 89.5453 60.805 90.6358 59.7787C91.0848 59.3938 90.4433 58.8165 90.0584 59.1372Z" fill="black"/>
<path d="M56.7657 47.3987C55.9318 47.078 55.098 46.7573 54.2641 46.4366C53.815 46.2441 53.366 46.629 53.2377 47.0139C53.1094 47.4629 53.4302 47.9119 53.815 48.0402C54.6489 48.3609 55.4828 48.6817 56.3167 49.0024C56.7658 49.1948 57.2148 48.8099 57.343 48.4251C57.4713 47.9119 57.2147 47.527 56.7657 47.3987Z" fill="black"/>
<path d="M70.2379 46.6931C69.404 46.6289 68.5701 46.6289 67.7363 46.5648C66.6458 46.5006 66.6458 48.1684 67.7363 48.2326C68.5701 48.2967 69.404 48.2967 70.2379 48.3609C71.3284 48.425 71.3284 46.6931 70.2379 46.6931Z" fill="black"/>
</g>
<defs>
<clipPath id="clip0_1_468">
<rect width="150" height="150" rx="75" fill="white"/>
</clipPath>
</defs>
</svg>
