<svg width="150" height="150" viewBox="0 0 150 150" fill="none" xmlns="http://www.w3.org/2000/svg">
<g clip-path="url(#clip0_1_741)">
<rect width="150" height="150" rx="75" fill="#7C4EFE"/>
<path d="M17.5726 196.051C17.8496 196.097 18.0804 196.235 18.3112 196.374C19.8345 195.635 22.0965 196.327 22.0504 198.543C21.8657 206.806 21.4503 215.07 20.9886 223.333H127.117C127.025 215.901 126.932 208.514 126.932 201.082C126.932 198.913 129.148 198.174 130.672 198.866C136.903 195.497 143.089 192.034 149.275 188.618C149.229 187.28 149.183 185.895 149.137 184.556C148.583 165.86 141.52 147.303 128.179 133.962C115.761 121.544 95.4031 112.219 77.5843 113.004C39.7769 114.712 4.83164 144.487 6.03188 184.556C6.07804 186.864 6.17038 189.265 6.21654 191.665C9.8634 192.819 13.4179 194.204 16.9263 195.681C17.2033 195.774 17.3879 195.912 17.5726 196.051Z" fill="white"/>
<path d="M61.7049 116.189H42.0857C24.313 116.189 8.34073 127.314 2.52422 144.071C0.216075 150.673 -1.81509 157.32 -3.8001 164.106C-4.86184 167.614 -5.87742 171.123 -7.03149 174.585C8.98701 182.248 26.2057 187.326 42.8705 193.65C48.8255 176.708 52.1031 157.966 60.8279 143.24C65.8134 134.839 65.9981 124.452 61.7049 116.189Z" fill="white"/>
<path d="M154.261 161.89C154.168 161.567 154.076 161.244 153.938 160.875C151.906 154.135 149.875 147.441 147.613 140.84C141.797 124.083 125.824 112.957 108.052 112.957H88.4326C84.1394 121.221 84.3241 131.561 89.3558 140.009C97.2035 153.211 100.62 169.692 105.559 185.202C121.716 177.309 137.55 168.63 154.261 161.89Z" fill="white"/>
<path d="M107.637 88.2139C106.806 83.967 104.36 80.1354 103.206 75.9346C101.867 70.9952 101.544 66.0096 101.959 60.9317C102.005 60.5162 101.821 60.2854 101.544 60.1469C94.4348 44.3593 76.3851 33.4187 60.6898 40.4816C60.5051 40.5739 60.4128 40.7124 60.3204 40.8509C54.9656 42.2819 50.3954 45.8365 48.0873 51.0529C46.4716 54.7459 46.4716 58.6697 46.6101 62.6397C46.7486 67.7638 46.2408 76.8117 45.3637 81.8435C44.302 87.9831 44.1173 94.3997 49.1952 98.8775C53.0729 102.294 58.3816 103.217 63.1825 101.37C69.3222 99.016 74.2616 92.1839 81.2784 92.4147C88.4336 92.6456 93.4654 99.9855 100.99 98.9699C106.437 98.1851 108.561 93.1995 107.637 88.2139Z" fill="#23355F"/>
<path d="M100.436 43.7591C100.575 38.7273 103.021 33.2339 97.7586 29.9102C92.4499 26.5403 85.8024 29.7256 80.586 31.5721L63.9674 37.5271C63.4135 38.358 62.9057 39.189 62.3979 40.066H62.444C62.3979 40.343 62.3979 40.5738 62.3979 40.8508C60.8283 45.6979 63.275 54.9305 65.8601 59.2698C69.5531 65.3633 74.2617 72.0569 79.8936 76.4885C84.3252 79.9969 88.4337 79.6276 93.1885 76.9501C97.5278 74.5035 102.79 71.1336 104.406 66.148C106.483 59.5468 100.298 50.1295 100.436 43.7591Z" fill="#23355F"/>
<path d="M90.9261 40.5277C87.9717 40.62 84.9711 40.7585 82.0167 40.9431C78.9238 41.1739 75.877 41.4048 72.7841 41.7741C71.9993 41.8664 71.1684 41.9587 70.3837 42.051C70.0605 42.0972 69.5989 42.1434 69.4142 42.1895C67.937 42.3742 66.4598 42.605 64.9826 42.8358C62.5821 43.2513 60.1817 43.6667 57.7812 44.1745C53.5804 49.5294 50.9491 56.5 50.9491 62.9628V84.2439C50.9491 90.522 53.3957 96.2462 57.3657 100.493C61.705 105.109 67.8447 108.018 74.6768 108.018H77.3542C85.1096 108.018 91.9879 104.325 96.3272 98.6005C99.3277 94.6305 101.128 89.6449 101.128 84.29V63.009C101.128 54.8843 97.1119 46.1134 90.9261 40.5277Z" fill="#F7ACA9"/>
<path d="M77.4011 34.8496H74.7236C67.7069 34.8496 61.4287 37.8964 57.0894 42.6973C53.3041 46.8981 50.996 52.4838 50.996 58.5773V63.2398C54.5043 62.5935 56.0277 57.1463 57.6896 52.6223C58.7975 49.5756 61.3826 47.2674 64.5217 46.6211C71.6769 45.0978 79.5246 44.4515 86.9568 44.6823C91.2499 44.8208 94.8506 47.9137 95.8201 52.1145C95.9585 52.7608 98.4052 66.8866 99.7901 67.6252C100.206 67.856 103.945 70.4412 104.453 66.148L101.221 58.6235C101.129 49.8525 90.5113 34.8496 77.4011 34.8496Z" fill="#23355F"/>
<path d="M94.7112 93.2456C82.4319 93.6611 70.1526 93.7996 58.1041 96.2924C58.9351 103.54 59.212 110.788 58.6581 118.035C60.1815 125.513 65.444 131.699 73.7995 132.576C82.5243 133.5 93.1417 126.529 93.1879 116.927C93.234 111.572 93.234 106.264 93.2802 100.909C93.6957 100.632 94.065 100.262 94.4804 99.9392C94.2496 97.7696 94.2958 95.4615 94.7112 93.2456Z" fill="#F7ACA9"/>
<path d="M58.5201 71.1338C45.456 63.2399 41.9015 64.394 39.9165 69.9335C37.9315 75.4731 39.9164 78.6583 50.2108 83.7824C60.5051 88.9526 58.5201 71.1338 58.5201 71.1338Z" fill="#F7ACA9"/>
<path d="M92.7729 71.1338C105.837 63.2399 109.392 64.394 111.377 69.9335C113.362 75.4731 111.377 78.6583 101.082 83.7824C90.7879 88.9526 92.7729 71.1338 92.7729 71.1338Z" fill="#F7ACA9"/>
<path d="M80.586 66.6558C79.755 65.7787 78.2316 66.9789 79.1087 67.856C81.4169 70.2103 86.4948 76.627 80.8168 78.612C79.6627 79.0275 80.4013 80.7816 81.5554 80.3662C83.9097 79.5352 85.2022 77.2271 85.2022 74.7343C85.1561 71.4567 82.7556 68.8716 80.586 66.6558Z" fill="#23355F"/>
<path d="M65.7676 65.6865C63.4133 66.1943 62.4438 69.3795 63.9672 71.1798C64.752 72.1031 66.3215 70.9952 65.4906 70.0719C64.8443 69.3333 65.029 67.81 66.1369 67.533C67.1063 67.3022 68.0757 68.3639 67.9372 69.2872C67.7525 70.4874 69.6452 70.8105 69.8299 69.6103C70.153 67.3483 68.0757 65.1787 65.7676 65.6865Z" fill="#23355F"/>
<path d="M66.3212 61.855C65.0748 62.3166 63.8285 62.7783 62.5821 63.2861C61.428 63.7015 62.0281 65.548 63.1822 65.0864C64.4286 64.6248 65.675 64.1632 66.9214 63.6554C68.0754 63.2399 67.4753 61.4395 66.3212 61.855Z" fill="#23355F"/>
<path d="M88.7107 56.4079L85.8948 56.8234C84.6945 57.008 84.9254 58.9007 86.1718 58.7161L88.9877 58.3006C90.188 58.116 89.911 56.2233 88.7107 56.4079Z" fill="#23355F"/>
<path d="M77.2158 90.1064C76.5234 92.8761 73.2458 94.7688 70.5222 93.6609C67.7986 92.5992 66.7368 88.9061 68.1679 86.4595C68.768 85.3978 67.2446 84.2437 66.6445 85.3054C64.6595 88.8138 65.8597 93.8455 69.7836 95.4151C73.7074 96.9846 78.0929 94.261 79.0623 90.3372C79.3855 89.1831 77.4928 88.9523 77.2158 90.1064Z" fill="#23355F"/>
<path d="M91.8034 65.5942C89.4029 66.1943 90.3724 69.8874 92.7729 69.2872C95.1272 68.641 94.2039 64.9479 91.8034 65.5942Z" fill="#23355F"/>
<path d="M92.7269 101.278C87.4182 104.879 81.4631 106.448 75.0927 105.848C73.8924 105.756 73.8924 107.648 75.0927 107.741C81.7401 108.341 88.1568 106.679 93.6963 102.894C94.6657 102.247 93.7425 100.585 92.7269 101.278Z" fill="#23355F"/>
<path d="M104.729 70.395C102.467 72.0107 100.898 74.3189 100.297 77.0886C100.067 78.2889 101.913 78.7967 102.144 77.5964C102.606 75.3345 103.806 73.3956 105.698 72.0569C106.668 71.3645 105.745 69.7026 104.729 70.395Z" fill="#23355F"/>
<path d="M50.8107 77.5965C50.1644 74.6883 48.2256 72.1955 45.502 70.8568C44.3941 70.3028 43.4247 71.9647 44.5326 72.5186C46.8407 73.6265 48.4102 75.6115 48.9642 78.1043C49.2412 79.3046 51.0877 78.7968 50.8107 77.5965Z" fill="#23355F"/>
</g>
<defs>
<clipPath id="clip0_1_741">
<rect width="150" height="150" rx="75" fill="white"/>
</clipPath>
</defs>
</svg>
