<svg width="150" height="150" viewBox="0 0 150 150" fill="none" xmlns="http://www.w3.org/2000/svg">
<g clip-path="url(#clip0_1_740)">
<rect width="150" height="150" rx="75" fill="#7C4EFE"/>
<path d="M63.2305 56.8493C62.4153 55.0457 60.1041 55.5357 59.1253 56.7928C58.9971 56.9319 58.9098 57.0824 58.7815 57.2215C57.3595 55.9917 54.6444 56.4998 54.7825 58.8136C55.9398 74.4952 39.5786 77.4799 29.7043 68.2813C24.3087 63.2692 20.1509 57.3351 14.2243 52.7867C3.68669 44.6711 -11.4759 38.3223 -25.0438 41.3021C-35.0604 43.4833 -44.2537 52.4142 -42.6824 63.224C-41.2622 72.8538 -32.2874 78.2126 -23.9277 81.9989C-32.9931 92.1908 -29.6967 108.297 -17.8329 115.646C-4.49563 123.89 10.8937 119.496 22.2711 110.52C23.0484 116.032 26.9089 120.833 32.813 122.662C41.2793 125.297 63.3062 123.112 68.9504 116.994C83.0429 101.604 71.3844 75.1914 63.2305 56.8493Z" fill="#FE4E4E"/>
<path d="M162.698 203.503C162.452 203.298 162.247 203.105 162.07 202.964C162.014 202.859 161.917 202.742 161.793 202.573C160.686 201.144 159.359 199.867 158.2 198.466C155.883 195.663 153.695 192.723 151.664 189.699C150.634 188.16 149.697 186.605 148.707 185.079C148.651 184.974 148.583 184.91 148.554 184.857C148.454 184.608 148.285 184.293 148.072 183.834C146.471 180.543 144.871 177.252 143.52 173.86C142.399 171.02 141.394 168.083 140.51 165.182C140.694 165.589 139.573 161.431 139.509 161.06C139.124 159.275 138.831 157.474 138.538 155.673C138.148 153.315 137.262 145.889 136.431 142.959C121.074 153.211 108.262 170.772 95.1141 183.75C100.415 200.583 108.836 216.373 120.434 229.907C133.215 244.762 148.384 255.015 164.87 265.268C166.387 266.206 167.892 267.183 169.357 268.149C178.134 255.268 186.733 242.246 196.516 230.105C184.883 221.657 172.853 212.783 162.698 203.503Z" fill="#FFF8E6"/>
<path d="M124.977 226.959C124.955 217.011 124.138 207.086 124.794 197.213C124.809 196.426 124.876 195.61 124.891 194.823C124.45 184.221 124.727 172.825 132.278 165.396C132.883 158.497 133.54 151.571 134.024 144.636C130.22 132.969 122.82 122.498 113.095 115.28C110.95 117.488 108.395 119.308 105.674 120.505C96.8966 124.395 87.0855 124.101 77.9142 121.801C70.8679 120.015 63.5223 116.73 58.0054 111.712C40.3364 120.469 27.4061 137.746 27.4448 159.135C27.4784 177.003 21.7912 224.145 20.5144 229.915C55.1819 234.851 90.1094 236.258 125.096 237.024C125.019 233.745 124.978 230.346 124.977 226.959Z" fill="#FFF8E6"/>
<path d="M122.986 146.81C122.309 146.021 121.213 147.152 121.863 147.888C127.172 153.988 126.419 162.666 120.246 167.749C119.46 168.397 120.553 169.537 121.288 168.918C128.082 163.314 128.81 153.515 122.986 146.81Z" fill="#23355F"/>
<path d="M45.0805 168.447C45.9161 162.707 50.1381 154.954 53.9897 147.13C55.11 136.989 55.86 126.778 57.4421 116.692C55.5393 113.744 53.4931 111.152 53.3389 111.238C42.1198 114.726 31.0133 121.048 23.8225 125.789C2.09561 140.097 -15.1032 160.97 -25.0526 185.519C-34.824 209.591 -37.3949 236.436 -33.1779 262.282C-27.9898 260.34 -22.8868 258.239 -17.7156 256.203C-8.48608 252.541 1.10006 249.923 10.3349 246.395C10.3464 246.355 10.3296 246.26 10.3411 246.22C8.74884 203.812 15.458 200.166 24.7011 186.597C30.3382 178.439 37.2055 173.153 45.0805 168.447Z" fill="#FFF8E6"/>
<path d="M48.0343 153.231C39.5529 162.679 32.0334 172.871 25.3961 183.781C24.8916 184.646 26.2126 185.501 26.7171 184.636C33.2401 173.824 40.7249 163.755 49.0919 154.404C49.7728 153.683 48.7152 152.51 48.0343 153.231Z" fill="#23355F"/>
<path d="M87.6765 42.9907C87.0631 41.1763 86.1098 39.6621 84.9492 38.44C84.5879 38.8213 84.2567 39.2541 83.9361 39.6463C84.9251 40.6923 85.7281 41.9492 86.2231 43.3845C86.4474 44.3565 87.9929 43.9439 87.6765 42.9907Z" fill="#23355F"/>
<path d="M85.9997 126C97.5341 126.808 106.999 122.5 113.499 115.5C106.5 109.5 93.0161 105.632 81.3531 106.326C72.2012 106.874 63.3136 109.447 55.5005 113.648C61.6718 121.945 76.8405 125.397 85.9997 126Z" fill="#F7ACA9"/>
<path d="M97.7199 108.797C97.1988 104.271 96.718 99.7558 96.197 95.2295C101.158 90.6659 103.44 83.4416 101.439 76.4506L94.9497 53.5038C93.9052 49.8429 91.8856 46.7925 89.2429 44.4925C85.0031 49.6039 80.3325 54.3783 75.3432 58.715C70.6323 63.4785 65.361 67.7382 59.8024 71.4372C61.3565 75.6318 62.4536 80.0962 63.5698 83.6452C66.5346 93.2667 68.7413 102.988 69.1883 113.018C71.2279 119.187 76.179 123.914 83.2163 123.863C90.5162 123.796 98.62 116.891 97.7199 108.797Z" fill="#F7ACA9"/>
<path d="M61.4248 70.5406C61.3789 70.0507 79.7829 62.8455 88.9846 45.3708C84.6321 40.8668 77.7584 39.1639 71.3064 41.0034L65.152 42.7052C55.413 45.4482 49.7915 55.5849 52.5976 65.3208L53.4941 68.382C56.3397 68.6634 58.9868 69.3694 61.4248 70.5406Z" fill="#FE4E4E"/>
<path d="M63.7121 70.9587C50.47 67.4345 47.6955 69.2969 47.3812 74.467C47.0669 79.637 49.5578 81.8334 59.728 83.6991C69.857 85.5541 63.7121 70.9587 63.7121 70.9587Z" fill="#F7ACA9"/>
<path d="M62.9815 77.7416C60.4032 75.2442 56.963 73.8556 53.3258 73.7374C52.2762 73.695 52.3601 75.2462 53.3681 75.2785C56.6103 75.3858 59.5933 76.6633 61.8908 78.8799C62.6393 79.572 63.73 78.4337 62.9815 77.7416Z" fill="#23355F"/>
<path d="M91.9828 61.8841C91.1877 61.2758 90.1208 62.3843 90.9053 63.0334C93.069 64.711 97.9201 69.3869 93.5233 71.6462C92.6257 72.1019 93.4433 73.4586 94.3409 73.003C96.1468 72.0509 96.9291 70.0356 96.6361 67.9912C96.2485 65.3098 93.9951 63.477 91.9828 61.8841Z" fill="#23355F"/>
<path d="M96.0158 94.3666C91.682 95.7862 87.2578 96.8824 82.8044 97.7565C81.792 97.9259 82.2755 99.4228 83.2467 99.2429C87.7413 98.3793 92.1243 97.2726 96.4581 95.8529C97.42 95.5419 96.9777 94.0555 96.0158 94.3666Z" fill="#23355F"/>
<path d="M80.6366 60.5629C79.7429 61.1497 78.7979 61.7662 77.9043 62.3529C77.0619 62.91 77.8838 64.2598 78.7262 63.7027C79.6199 63.116 80.5648 62.4995 81.4585 61.9127C82.3009 61.3557 81.4789 60.0059 80.6366 60.5629Z" fill="#23355F"/>
<path d="M95.2509 53.6898L92.9745 54.3456C91.9859 54.6047 92.4235 56.0995 93.4121 55.8403L95.6885 55.1846C96.6361 54.9147 96.1986 53.42 95.2509 53.6898Z" fill="#23355F"/>
<path d="M93.0953 80.2087C92.88 82.5165 90.4013 84.4122 88.0463 83.8476C85.6913 83.283 84.3756 80.4513 85.2489 78.3132C85.6278 77.3797 84.2429 76.6357 83.8641 77.5692C82.6226 80.6006 84.2586 84.5462 87.6936 85.3465C91.1286 86.1467 94.3868 83.4638 94.7235 80.199C94.8144 79.1912 93.2167 79.2517 93.0953 80.2087Z" fill="#23355F"/>
<path d="M85.9822 64.5306C85.4183 63.6876 84.0805 64.4595 84.6445 65.3025C85.118 65.9916 85.0042 67.0883 84.2023 67.4822C83.4411 67.8871 82.4035 67.3517 82.1766 66.5547C81.8592 65.6037 80.3619 65.9866 80.6686 66.9781C81.1933 68.6342 83.187 69.6832 84.8317 68.9061C86.4249 68.1586 87.0002 65.9709 85.9822 64.5306Z" fill="#23355F"/>
<path d="M98.2279 58.8355C97.664 57.9923 96.3263 58.7643 96.8902 59.6074C97.3637 60.2965 97.2499 61.3932 96.448 61.7872C95.6869 62.192 94.6493 61.6566 94.4224 60.8596C94.1051 59.9085 92.6079 60.2914 92.9146 61.283C93.4392 62.9392 95.4328 63.9883 97.0774 63.2112C98.6705 62.4637 99.1943 60.3055 98.2279 58.8355Z" fill="#23355F"/>
<path d="M85.2567 42.4C85.7655 42.2757 86.2848 42.1107 86.8042 41.9456C82.4077 33.5089 69.5933 33.1411 62.0873 37.5276C50.4964 44.3013 57.0355 59.3424 57.7487 69.6202C57.8291 70.6461 59.3922 70.6325 59.3117 69.6066C58.7245 60.8473 53.6215 50.1238 59.2881 42.1399C64.6446 34.6833 80.4554 33.8537 85.2567 42.4Z" fill="#23355F"/>
<path d="M67.3459 79.4647C66.5901 82.345 64.5024 84.6533 61.9087 85.5681C61.3861 85.7327 60.8227 85.8864 60.2806 85.959C59.3807 86.0665 58.4826 86.0008 57.5456 85.7511C53.1458 84.5788 49.9008 79.504 51.3764 75.2096C53.1268 70.0335 57.0478 68.2136 61.4475 69.3859C65.8473 70.5583 68.4955 75.0834 67.3459 79.4647Z" fill="#23355F"/>
<path d="M93.0001 125.5C90.7062 125.828 88.2437 126.419 85.6502 126.204C75.7115 125.539 57.9122 121.233 53.4107 111.232C64.0345 107.596 74.6378 106.539 82.5746 111.138C87.1017 114.087 90.7012 118.723 92.5442 124.5C92.7193 125.012 92.908 125.009 93.0001 125.5Z" fill="#F7ACA9"/>
<path d="M47.9506 293.41C47.1751 294.033 46.0887 292.919 46.8754 292.255C59.4942 281.994 60.4359 264.725 59.3505 249.498C57.2872 221.214 55.5011 193.187 56.1155 164.782C56.7099 137.574 58.8935 110.422 62.6216 83.4916C63.1602 83.424 63.7101 83.315 64.242 83.1119C61.9413 99.6346 60.215 116.278 59.0966 132.918C57.1389 161.96 57.023 191.087 58.702 220.152C59.5213 234.277 61.8851 248.625 61.2248 262.77C60.6603 274.316 57.0225 286.003 47.9506 293.41Z" fill="#97B1FE"/>
</g>
<defs>
<clipPath id="clip0_1_740">
<rect width="150" height="150" rx="75" fill="white"/>
</clipPath>
</defs>
</svg>
